<svg xmlns="http://www.w3.org/2000/svg" viewBox="0 0 96 96" role="img" aria-labelledby="title" shape-rendering="geometricPrecision">
  <title id="title">Light rain</title>
  <defs>
    <radialGradient id="sun" cx="50%" cy="45%" r="55%">
      <stop offset="0" stop-color="#fff7b8"/>
      <stop offset=".58" stop-color="#ffe16d"/>
      <stop offset="1" stop-color="#ffb72e"/>
    </radialGradient>
    <linearGradient id="cloud" x1="20" x2="78" y1="40" y2="66">
      <stop offset="0" stop-color="#ffffff"/>
      <stop offset=".58" stop-color="#d7f7ff"/>
      <stop offset="1" stop-color="#8adfff"/>
    </linearGradient>
  </defs>
  <circle cx="36" cy="34" r="16" fill="url(#sun)" stroke="#fff2a1" stroke-width=".9" opacity=".94"/>
  <path d="M29 65h38c9 0 16-6 16-14 0-7-7-13-16-13h-2c-3-8-11-14-21-14-12 0-21 8-23 18-7 2-11 6-11 12 0 6 6 11 19 11Z" fill="url(#cloud)" stroke="#eafcff" stroke-width="1"/>
  <g fill="none" stroke="#2ff7ff" stroke-linecap="round" stroke-width="3.4" opacity=".88">
    <path d="M34 73 29 84"/>
    <path d="M50 73 45 84"/>
    <path d="M66 73 61 84"/>
  </g>
</svg>
