<svg xmlns="http://www.w3.org/2000/svg" viewBox="0 0 96 96" role="img" aria-labelledby="title" shape-rendering="geometricPrecision">
  <title id="title">Partly cloudy day</title>
  <defs>
    <radialGradient id="sun" cx="50%" cy="45%" r="55%">
      <stop offset="0" stop-color="#fff7b8"/>
      <stop offset=".58" stop-color="#ffe16d"/>
      <stop offset="1" stop-color="#ffb72e"/>
    </radialGradient>
    <linearGradient id="cloud" x1="20" x2="78" y1="44" y2="72">
      <stop offset="0" stop-color="#ffffff"/>
      <stop offset=".55" stop-color="#d7f7ff"/>
      <stop offset="1" stop-color="#8adfff"/>
    </linearGradient>
  </defs>
  <circle cx="39" cy="36" r="20" fill="#2ff7ff" opacity=".06"/>
  <g fill="none" stroke="#ffe16d" stroke-linecap="round" stroke-width="3.4" opacity=".9">
    <path d="M38 9v8M16 31h8M55 17l-6 6M21 17l6 6"/>
  </g>
  <circle cx="38" cy="36" r="17" fill="url(#sun)" stroke="#fff2a1" stroke-width=".9"/>
  <path d="M30 70h36c9 0 16-6 16-14s-7-14-16-14h-1c-3-9-11-15-22-15-12 0-22 8-24 19-7 2-12 6-12 13 0 6 5 11 13 11Z" fill="url(#cloud)" stroke="#eafcff" stroke-width="1"/>
  <path d="M28 70h40" fill="none" stroke="#2ff7ff" stroke-linecap="round" stroke-width="1.8" opacity=".45"/>
</svg>
