<svg xmlns="http://www.w3.org/2000/svg" viewBox="0 0 96 96" role="img" aria-labelledby="title" shape-rendering="geometricPrecision">
  <title id="title">Storm</title>
  <defs>
    <linearGradient id="cloud" x1="17" x2="82" y1="32" y2="68">
      <stop offset="0" stop-color="#ffffff"/>
      <stop offset=".5" stop-color="#bdefff"/>
      <stop offset="1" stop-color="#49c8ff"/>
    </linearGradient>
    <linearGradient id="bolt" x1="42" x2="58" y1="57" y2="91">
      <stop offset="0" stop-color="#fff7b8"/>
      <stop offset=".5" stop-color="#ffe16d"/>
      <stop offset="1" stop-color="#ffb72e"/>
    </linearGradient>
  </defs>
  <circle cx="48" cy="49" r="34" fill="#2ff7ff" opacity=".07"/>
  <path d="M23 65h43c11 0 20-7 20-17 0-9-8-16-18-16h-2c-4-11-14-18-27-18-15 0-27 10-30 23-9 2-15 8-15 16 0 7 7 12 29 12Z" fill="url(#cloud)" stroke="#eafcff" stroke-width="1"/>
  <path d="m51 57-12 23h12l-5 15 20-27H54l7-11Z" fill="url(#bolt)" stroke="#fff2a1" stroke-width=".9" stroke-linejoin="round"/>
  <g fill="none" stroke="#2ff7ff" stroke-linecap="round" stroke-width="3.1" opacity=".72">
    <path d="M27 72 23 82"/>
    <path d="M72 70 68 80"/>
  </g>
</svg>
